<svg width="8" height="10" viewBox="0 0 8 10" fill="none" xmlns="http://www.w3.org/2000/svg">
<path d="M4 10C3.88333 10 3.78333 9.96667 3.7 9.9C3.61667 9.83333 3.55417 9.74583 3.5125 9.6375C3.35417 9.17083 3.15417 8.73333 2.9125 8.325C2.67917 7.91667 2.35 7.4375 1.925 6.8875C1.5 6.3375 1.15417 5.8125 0.8875 5.3125C0.629167 4.8125 0.5 4.20833 0.5 3.5C0.5 2.525 0.8375 1.7 1.5125 1.025C2.19583 0.341666 3.025 0 4 0C4.975 0 5.8 0.341666 6.475 1.025C7.15833 1.7 7.5 2.525 7.5 3.5C7.5 4.25833 7.35417 4.89167 7.0625 5.4C6.77917 5.9 6.45 6.39583 6.075 6.8875C5.625 7.4875 5.28333 7.9875 5.05 8.3875C4.825 8.77917 4.6375 9.19583 4.4875 9.6375C4.44583 9.75417 4.37917 9.84583 4.2875 9.9125C4.20417 9.97083 4.10833 10 4 10ZM4 8.2125C4.14167 7.92917 4.3 7.65 4.475 7.375C4.65833 7.1 4.925 6.73333 5.275 6.275C5.63333 5.80833 5.925 5.37917 6.15 4.9875C6.38333 4.5875 6.5 4.09167 6.5 3.5C6.5 2.80833 6.25417 2.22083 5.7625 1.7375C5.27917 1.24583 4.69167 1 4 1C3.30833 1 2.71667 1.24583 2.225 1.7375C1.74167 2.22083 1.5 2.80833 1.5 3.5C1.5 4.09167 1.6125 4.5875 1.8375 4.9875C2.07083 5.37917 2.36667 5.80833 2.725 6.275C3.075 6.73333 3.3375 7.1 3.5125 7.375C3.69583 7.65 3.85833 7.92917 4 8.2125ZM4 4.75C4.35 4.75 4.64583 4.62917 4.8875 4.3875C5.12917 4.14583 5.25 3.85 5.25 3.5C5.25 3.15 5.12917 2.85417 4.8875 2.6125C4.64583 2.37083 4.35 2.25 4 2.25C3.65 2.25 3.35417 2.37083 3.1125 2.6125C2.87083 2.85417 2.75 3.15 2.75 3.5C2.75 3.85 2.87083 4.14583 3.1125 4.3875C3.35417 4.62917 3.65 4.75 4 4.75Z" fill="#1D1B20"/>
</svg>
